<svg width="18" height="18" viewBox="0 0 18 18" fill="none" xmlns="http://www.w3.org/2000/svg">
<g opacity="0.8" clip-path="url(#clip0_769_1764)">
<path d="M4.87543 8.75391H3.79269C3.5124 8.75391 3.28516 8.99002 3.28516 9.28125C3.28516 9.57248 3.5124 9.80859 3.79269 9.80859H4.87543C5.15572 9.80859 5.38296 9.57248 5.38296 9.28125C5.38296 8.99002 5.15572 8.75391 4.87543 8.75391Z" fill="#181818"/>
<path d="M4.87543 11.0039H3.79269C3.5124 11.0039 3.28516 11.24 3.28516 11.5312C3.28516 11.8225 3.5124 12.0586 3.79269 12.0586H4.87543C5.15572 12.0586 5.38296 11.8225 5.38296 11.5312C5.38296 11.24 5.15572 11.0039 4.87543 11.0039Z" fill="#181818"/>
<path d="M4.87543 13.2539H3.79269C3.5124 13.2539 3.28516 13.49 3.28516 13.7812C3.28516 14.0725 3.5124 14.3086 3.79269 14.3086H4.87543C5.15572 14.3086 5.38296 14.0725 5.38296 13.7812C5.38296 13.49 5.15572 13.2539 4.87543 13.2539Z" fill="#181818"/>
<path d="M9.20746 8.75391H8.12472C7.84443 8.75391 7.61719 8.99002 7.61719 9.28125C7.61719 9.57248 7.84443 9.80859 8.12472 9.80859H9.20746C9.48776 9.80859 9.715 9.57248 9.715 9.28125C9.715 8.99002 9.48776 8.75391 9.20746 8.75391Z" fill="#181818"/>
<path d="M9.20746 11.0039H8.12472C7.84443 11.0039 7.61719 11.24 7.61719 11.5312C7.61719 11.8225 7.84443 12.0586 8.12472 12.0586H9.20746C9.48776 12.0586 9.715 11.8225 9.715 11.5312C9.715 11.24 9.48776 11.0039 9.20746 11.0039Z" fill="#181818"/>
<path d="M9.20746 13.2539H8.12472C7.84443 13.2539 7.61719 13.49 7.61719 13.7812C7.61719 14.0725 7.84443 14.3086 8.12472 14.3086H9.20746C9.48776 14.3086 9.715 14.0725 9.715 13.7812C9.715 13.49 9.48776 13.2539 9.20746 13.2539Z" fill="#181818"/>
<path d="M13.5395 8.75391H12.4568C12.1765 8.75391 11.9492 8.99002 11.9492 9.28125C11.9492 9.57248 12.1765 9.80859 12.4568 9.80859H13.5395C13.8198 9.80859 14.047 9.57248 14.047 9.28125C14.047 8.99002 13.8198 8.75391 13.5395 8.75391Z" fill="#181818"/>
<path d="M13.5395 11.0039H12.4568C12.1765 11.0039 11.9492 11.24 11.9492 11.5312C11.9492 11.8225 12.1765 12.0586 12.4568 12.0586H13.5395C13.8198 12.0586 14.047 11.8225 14.047 11.5312C14.047 11.24 13.8198 11.0039 13.5395 11.0039Z" fill="#181818"/>
<path d="M13.5395 13.2539H12.4568C12.1765 13.2539 11.9492 13.49 11.9492 13.7812C11.9492 14.0725 12.1765 14.3086 12.4568 14.3086H13.5395C13.8198 14.3086 14.047 14.0725 14.047 13.7812C14.047 13.49 13.8198 13.2539 13.5395 13.2539Z" fill="#181818"/>
<path d="M15.8051 2.28516H14.5871V1.40625C14.5871 1.11502 14.3598 0.878906 14.0795 0.878906C13.7992 0.878906 13.572 1.11502 13.572 1.40625V2.28516H9.17336V1.40625C9.17336 1.11502 8.94612 0.878906 8.66582 0.878906C8.38553 0.878906 8.15829 1.11502 8.15829 1.40625V2.28516H3.75966V1.40625C3.75966 1.11502 3.53242 0.878906 3.25213 0.878906C2.97183 0.878906 2.74459 1.11502 2.74459 1.40625V2.28516H1.52651C0.686946 2.28516 0.00390625 2.99486 0.00390625 3.86719V15.5391C0.00390625 16.4114 0.686946 17.1211 1.52651 17.1211H15.8051C16.6447 17.1211 17.3277 16.4114 17.3277 15.5391C17.3277 15.1987 17.3277 4.16338 17.3277 3.86719C17.3277 2.99486 16.6447 2.28516 15.8051 2.28516ZM1.01897 3.86719C1.01897 3.57641 1.24665 3.33984 1.52651 3.33984H2.74459V4.21875C2.74459 4.50998 2.97183 4.74609 3.25213 4.74609C3.53242 4.74609 3.75966 4.50998 3.75966 4.21875V3.33984H8.15829V4.21875C8.15829 4.50998 8.38553 4.74609 8.66582 4.74609C8.94612 4.74609 9.17336 4.50998 9.17336 4.21875V3.33984H13.572V4.21875C13.572 4.50998 13.7992 4.74609 14.0795 4.74609C14.3598 4.74609 14.5871 4.50998 14.5871 4.21875V3.33984H15.8051C16.085 3.33984 16.3127 3.57641 16.3127 3.86719V5.94141H1.01897V3.86719ZM15.8051 16.0664H1.52651C1.24665 16.0664 1.01897 15.8298 1.01897 15.5391V6.99609H16.3127V15.5391C16.3127 15.8298 16.085 16.0664 15.8051 16.0664Z" fill="#181818"/>
</g>
<defs>
<clipPath id="clip0_769_1764">
<rect width="17.3238" height="18" fill="white" transform="translate(0.00390625)"/>
</clipPath>
</defs>
</svg>
