<svg width="16" height="14" viewBox="0 0 16 14" fill="none" xmlns="http://www.w3.org/2000/svg">
<path d="M11.0895 9.12676C11.3858 8.63264 11.5587 8.0744 11.5935 7.49931C11.6283 6.92422 11.524 6.34921 11.2895 5.82296C11.055 5.29671 10.6971 4.83472 10.2462 4.4761C9.79525 4.11747 9.26456 3.87278 8.69903 3.76272C7.23471 3.46616 5.69691 4.15476 4.92559 5.42856C4.59219 5.98697 4.41425 6.62441 4.41023 7.27476C4.4062 7.92512 4.57624 8.56471 4.90271 9.1272H11.0895V9.12676Z" fill="#EC8438"/>
<path d="M11.5963 7.29395C11.5902 7.93918 11.4141 8.57141 11.0859 9.12699H11.8265C12.1037 8.55531 12.2507 7.92926 12.2568 7.29395C12.2594 7.71943 11.5994 7.71855 11.5963 7.29395Z" fill="#EC8438"/>
<path d="M4.92169 5.42947C5.69345 4.15567 7.23081 3.46707 8.69513 3.76363C9.50947 3.93196 10.2416 4.37419 10.7695 5.01668C11.2974 5.65916 11.5893 6.46311 11.5965 7.29463C11.5996 6.86959 12.2596 6.87003 12.2565 7.29463C12.249 6.41992 11.9756 5.56818 11.4726 4.85249C10.9696 4.1368 10.2609 3.591 9.44049 3.28755C7.77861 2.67947 5.83469 3.21627 4.71841 4.58247C3.67605 5.85847 3.45385 7.65147 4.15565 9.12767H4.89837C4.57206 8.56519 4.40214 7.92566 4.40624 7.27539C4.41034 6.62512 4.58831 5.98779 4.92169 5.42947Z" fill="#EC8438"/>
<path d="M11.5977 7.29405C11.6007 7.71865 12.2607 7.71953 12.2577 7.29405C12.2546 6.86857 11.6007 6.86769 11.5977 7.29405Z" fill="#EC8438"/>
<path d="M7.67188 0.319756V1.80036C7.67188 2.22496 8.33187 2.22584 8.33187 1.80036V0.319756C8.33187 -0.104843 7.67188 -0.105723 7.67188 0.319756Z" fill="#EC8438"/>
<path d="M4.22649 1.42067L4.96701 2.70327C5.17953 3.07111 5.74977 2.73891 5.53901 2.37019L4.79849 1.08759C4.58421 0.720185 4.01353 1.05195 4.22649 1.42067ZM4.51161 1.25391L5.25213 2.53651L4.51161 1.25391Z" fill="#EC8438"/>
<path d="M2.12605 3.52339C1.75777 3.31043 1.42469 3.88067 1.79297 4.09539L3.07556 4.83591C3.44428 5.04887 3.77692 4.47863 3.40864 4.26391L2.12605 3.52339ZM1.95929 3.80851L3.24188 4.54903L1.95929 3.80851Z" fill="#EC8438"/>
<path d="M1.02581 7.62386H2.50641C2.93101 7.62386 2.93189 6.96387 2.50641 6.96387H1.02581C0.601211 6.96387 0.600331 7.62386 1.02581 7.62386Z" fill="#EC8438"/>
<path d="M14.9752 6.96387H13.4946C13.07 6.96387 13.0691 7.62386 13.4946 7.62386H14.9752C15.3998 7.62386 15.4006 6.96387 14.9752 6.96387Z" fill="#EC8438"/>
<path d="M13.8723 3.52405L12.5897 4.26457C12.2219 4.47709 12.5541 5.04733 12.9228 4.83657L14.2054 4.09605C14.5733 3.88001 14.2411 3.30933 13.8723 3.52405ZM12.7565 4.54925L14.0391 3.80873L12.7565 4.54925Z" fill="#EC8438"/>
<path d="M11.2031 1.08769L10.4648 2.37029C10.2518 2.73901 10.8221 3.07165 11.0368 2.70337L11.7773 1.42077C11.9859 1.05249 11.4156 0.719853 11.2031 1.08769ZM10.7477 2.53661L11.4882 1.25401L10.7477 2.53661Z" fill="#EC8438"/>
<path d="M14.9224 9.12695H11.8283C11.7741 9.23959 11.7154 9.34959 11.6523 9.45695H13.3991V9.78695H14.9224C15.3483 9.78695 15.3483 9.12695 14.9224 9.12695Z" fill="#EC8438"/>
<path d="M1.07659 9.45695H4.33259C4.26865 9.349 4.20998 9.23901 4.15659 9.12695H1.07659C0.651993 9.12695 0.651113 9.78695 1.07659 9.78695H2.59987V9.45695H1.07659Z" fill="#EC8438"/>
<path d="M11.0896 9.12695H4.90234C4.96918 9.24115 5.04264 9.35134 5.12234 9.45695H10.8687C10.9483 9.35101 11.022 9.24085 11.0896 9.12695Z" fill="#EC8438"/>
<path d="M5.12117 9.45695C5.04146 9.35134 4.96801 9.24115 4.90117 9.12695H4.15625C4.20934 9.23901 4.26801 9.34901 4.33225 9.45695H5.12117Z" fill="#EC8438"/>
<path d="M10.8672 9.45695H11.6513C11.7149 9.34959 11.7736 9.23959 11.8273 9.12695H11.0867C11.0195 9.24082 10.9462 9.35097 10.8672 9.45695Z" fill="#EC8438"/>
<path d="M4.35364 9.49267C4.3466 9.48079 4.34 9.46891 4.33296 9.45703H2.60156V9.78703H4.54988C4.48036 9.69243 4.41524 9.59563 4.35364 9.49267Z" fill="#EC8438"/>
<path d="M5.40709 9.78703H10.5894C10.6884 9.68262 10.7811 9.57242 10.8671 9.45703H5.12109C5.14808 9.49252 5.1758 9.52743 5.20425 9.56175C5.26879 9.64037 5.3364 9.71546 5.40709 9.78703Z" fill="#EC8438"/>
<path d="M11.6535 9.45703C11.5864 9.57026 11.5144 9.68026 11.4375 9.78703H13.4003V9.45703H11.6535Z" fill="#EC8438"/>
<path d="M10.5898 9.78703H11.4316C11.5084 9.68026 11.5804 9.57026 11.6476 9.45703H10.8675C10.7815 9.57242 10.6888 9.68262 10.5898 9.78703Z" fill="#EC8438"/>
<path d="M5.20411 9.56175C5.17478 9.52743 5.14706 9.49252 5.12095 9.45703H4.33203C4.33907 9.46891 4.34567 9.48079 4.35271 9.49267C4.41431 9.59431 4.47987 9.69243 4.54895 9.78703H5.40739C5.33699 9.71517 5.26923 9.64007 5.20411 9.56175Z" fill="#EC8438"/>
<path d="M13.5062 11.2236H13.3984V11.5536H13.5062C13.9308 11.5536 13.9317 10.8936 13.5062 10.8936H13.3984V11.2236H13.5062Z" fill="#193651" fill-opacity="0.8"/>
<path d="M2.49456 11.2236H2.60236V10.8936H2.49456C2.06996 10.8936 2.06908 11.5536 2.49456 11.5536H2.60236V11.2236H2.49456Z" fill="#EC8438"/>
<path d="M5.92578 11.4551L6.02698 11.5519H6.15898L5.92578 11.4551Z" fill="#EC8438"/>
<path d="M10.2834 10.8838C10.0808 11.0156 9.86703 11.1294 9.64453 11.2239H13.3982V10.8939H10.7894C10.6222 10.8921 10.4528 10.886 10.2834 10.8838Z" fill="#EC8438"/>
<path d="M9.83984 11.5519H9.97184L10.073 11.4551L9.83984 11.5519Z" fill="#EC8438"/>
<path d="M9.83956 11.2236L8.00036 12.9836L6.16116 11.2236H2.60156V11.5536H6.02872L5.92752 11.4568L6.16072 11.5536H6.02872L7.76716 13.2173C7.82988 13.2776 7.91354 13.3114 8.00058 13.3114C8.08763 13.3114 8.17129 13.2776 8.234 13.2173L9.97244 11.5536H9.84044L10.0736 11.4568L9.97244 11.5536H13.3992V11.2236H9.83956Z" fill="#EC8438"/>
<path d="M6.16116 11.2235H6.386C6.15352 11.1286 5.92975 11.0136 5.7172 10.8799C5.61248 10.886 5.51392 10.8935 5.43428 10.8935H2.60156V11.2235H6.16116Z" fill="#EC8438"/>
<path d="M9.83848 10.8917C9.64796 10.9049 9.52036 11.0677 9.391 11.1936L9.36328 11.2235H9.6462C9.86864 11.1296 10.0824 11.0164 10.2851 10.8851C10.1346 10.8812 9.98544 10.8816 9.83848 10.8917Z" fill="#EC8438"/>
<path d="M6.40251 10.9949C6.24719 10.8603 5.96559 10.8629 5.71875 10.8783C5.93129 11.0121 6.15507 11.127 6.38755 11.222H6.65771C6.57323 11.1454 6.48816 11.0697 6.40251 10.9949Z" fill="#EC8438"/>
<path d="M8.23203 12.7488C8.15429 12.6746 8.077 12.5998 8.00015 12.5244L7.76562 12.7488H8.23203Z" fill="#EC8438"/>
<path d="M8.81204 11.7475L7.99936 12.5236C8.0765 12.599 8.1538 12.6738 8.23124 12.748H7.76616L8.00068 12.5236C7.6082 12.1404 7.22056 11.7475 6.81928 11.373C6.67195 11.3303 6.52698 11.2798 6.385 11.2217H6.16016L7.99936 12.9834L9.83855 11.2234H9.64452C9.49762 11.2858 9.34717 11.3394 9.19395 11.384L8.81204 11.7475Z" fill="#EC8438"/>
<path d="M9.19531 11.382C9.34848 11.3381 9.49893 11.2852 9.64588 11.2236H9.36471L9.19531 11.382Z" fill="#EC8438"/>
<path d="M6.65688 11.2236H6.38672C6.52871 11.2817 6.67367 11.3322 6.821 11.375C6.76644 11.3231 6.71173 11.2726 6.65688 11.2236Z" fill="#EC8438"/>
<path d="M9.83831 12.6572C9.41371 12.6572 9.41283 13.3172 9.83831 13.3172H12.2451C12.6697 13.3172 12.6706 12.6572 12.2451 12.6572H9.83831Z" fill="#EC8438"/>
<path d="M6.15917 12.6572H3.75237C3.32777 12.6572 3.32689 13.3172 3.75237 13.3172H6.15917C6.58377 13.3172 6.58421 12.6572 6.15917 12.6572Z" fill="#EC8438"/>
</svg>
