<svg width="19" height="20" viewBox="0 0 19 20" fill="none" xmlns="http://www.w3.org/2000/svg">
<g clip-path="url(#clip0_2496_533)">
<path d="M8.00164 10.4045C8.58584 13.2887 10.5288 15.4343 13.008 16.3547C12.3971 16.736 11.7293 17.0358 11.0134 17.2324C7.07256 18.3147 3.21988 15.9452 2.40872 11.9405C1.59757 7.93593 4.13487 3.81146 8.07566 2.72918C8.79165 2.53254 9.5041 2.45325 10.1969 2.47655C8.33219 4.58994 7.41743 7.52036 8.00164 10.4045Z" stroke="#045FB2" stroke-opacity="0.9" stroke-width="1.2"/>
<mask id="path-2-inside-1_2496_533" fill="white">
<path d="M14.3387 3.49182C14.5581 4.57468 13.8727 5.68877 12.8071 5.9814C13.8727 5.68877 14.9134 6.32881 15.1327 7.41166C14.9134 6.32881 15.5988 5.21472 16.6643 4.92208C15.5988 5.21472 14.5581 4.57468 14.3387 3.49182Z"/>
</mask>
<path d="M12.4102 4.02148L12.4101 4.02121L13.2042 7.9416C15.3346 7.3565 16.706 5.12786 16.2673 2.96216L12.4102 4.02148ZM13.2042 7.9416L13.2041 7.94132L17.0613 6.882C16.6226 4.7163 14.5405 3.43612 12.4101 4.02121L13.2042 7.9416ZM17.0613 6.882L17.0614 6.88227L16.2673 2.96189C14.1369 3.54698 12.7655 5.77563 13.2041 7.94132L17.0613 6.882ZM16.2673 2.96189L16.2673 2.96216L12.4102 4.02148C12.8488 6.18718 14.9309 7.46737 17.0614 6.88227L16.2673 2.96189Z" fill="#045FB2" mask="url(#path-2-inside-1_2496_533)"/>
<mask id="path-4-inside-2_2496_533" fill="white">
<path d="M11.077 7.49085C11.2964 8.5737 10.611 9.68779 9.54543 9.98043C10.611 9.68779 11.6517 10.3278 11.871 11.4107C11.6517 10.3278 12.3371 9.21374 13.4026 8.9211C12.3371 9.21374 11.2964 8.5737 11.077 7.49085Z"/>
</mask>
<path d="M9.14844 8.02051L9.14838 8.02023L9.94247 11.9406C12.0729 11.3555 13.4443 9.12688 13.0056 6.96119L9.14844 8.02051ZM9.94247 11.9406L9.94242 11.9403L13.7996 10.881C13.3609 8.71533 11.2788 7.43514 9.14838 8.02023L9.94247 11.9406ZM13.7996 10.881L13.7997 10.8813L13.0056 6.96091C10.8751 7.546 9.50375 9.77465 9.94242 11.9403L13.7996 10.881ZM13.0056 6.96091L13.0056 6.96119L9.14844 8.02051C9.58711 10.1862 11.6692 11.4664 13.7997 10.8813L13.0056 6.96091Z" fill="#045FB2" mask="url(#path-4-inside-2_2496_533)"/>
<mask id="path-6-inside-3_2496_533" fill="white">
<path d="M15.3593 13.5562C15.14 12.4733 15.8253 11.3592 16.8909 11.0666C15.8253 11.3592 14.7846 10.7192 14.5653 9.63635C14.7846 10.7192 14.0993 11.8333 13.0337 12.1259C14.0993 11.8333 15.14 12.4733 15.3593 13.5562Z"/>
</mask>
<path d="M17.2879 13.0265L17.2879 13.0268L16.4938 9.10642C14.3634 9.69151 12.992 11.9202 13.4307 14.0859L17.2879 13.0265ZM16.4938 9.10642L16.4939 9.10669L12.6367 10.166C13.0754 12.3317 15.1575 13.6119 17.2879 13.0268L16.4938 9.10642ZM12.6367 10.166L12.6367 10.1657L13.4308 14.0861C15.5612 13.501 16.9326 11.2724 16.4939 9.10669L12.6367 10.166ZM13.4308 14.0861L13.4307 14.0859L17.2879 13.0265C16.8492 10.8608 14.7671 9.58065 12.6367 10.1657L13.4308 14.0861Z" fill="#045FB2" mask="url(#path-6-inside-3_2496_533)"/>
</g>
<defs>
<clipPath id="clip0_2496_533">
<rect width="16" height="15.9978" fill="white" transform="matrix(0.964295 -0.264831 0.198523 0.980096 0.242188 4.25977)"/>
</clipPath>
</defs>
</svg>
