<svg width="17" height="13" viewBox="0 0 17 13" fill="none" xmlns="http://www.w3.org/2000/svg">
<g clip-path="url(#clip0_2498_544)">
<path d="M0.470538 13.0004V12.1075H6.04728L5.09269 5.87873L0.406899 6.69023C0.368168 6.69662 0.328617 6.69486 0.290539 6.68505C0.252462 6.67524 0.216617 6.65758 0.185085 6.63309C0.153552 6.6086 0.126961 6.57778 0.106853 6.5424C0.086745 6.50702 0.0735216 6.4678 0.06795 6.427V6.41392C-0.0400981 5.69738 -0.0112079 4.9654 0.152932 4.26074C0.317072 3.55608 0.61317 2.89287 1.02392 2.30988C1.86356 1.11644 3.11261 0.313988 4.50591 0.0728671C5.89922 -0.168253 7.32706 0.170947 8.48633 1.01846C9.05515 1.4352 9.53897 1.96727 9.90936 2.5834C10.2798 3.19953 10.5292 3.88728 10.6431 4.60622C10.656 4.68777 10.6375 4.77133 10.5919 4.83865C10.5463 4.90596 10.4772 4.95154 10.3997 4.96543L5.7194 5.77111L6.6311 11.725L7.26058 10.9979H6.76668V10.1035H8.56518L6.48307 7.41738L7.13883 6.85166L8.46142 8.55028H10.8479C10.9204 8.55123 10.9916 8.57162 11.0545 8.60954C11.1175 8.64746 11.1702 8.70165 11.2076 8.76697L12.1055 10.1035H14.0022C14.0631 10.1036 14.1232 10.1174 14.1786 10.144C14.2339 10.1706 14.2832 10.2093 14.3232 10.2576L16.0968 12.1075H17.0015V13.0004H0.470538ZM3.81714 0.897751C3.36889 1.31659 3.08528 1.9303 2.9414 2.68654C2.78231 3.51986 2.79614 4.51896 2.95109 5.6155L4.99861 5.26356L4.81876 4.10012C4.81876 4.08413 4.81876 4.06813 4.81876 4.05213L4.30273 0.753775C4.13848 0.792987 3.97638 0.841535 3.81714 0.899205V0.897751ZM2.36727 5.71585C2.19987 4.54368 2.18742 3.46896 2.35897 2.56438C2.42725 2.19166 2.5378 1.82889 2.68823 1.48383C2.2304 1.80687 1.82926 2.21084 1.5026 2.67782C0.824068 3.63938 0.507724 4.83074 0.614418 6.02271L2.36727 5.71585ZM6.69197 0.810493C6.93164 1.0799 7.14015 1.37817 7.31315 1.69907C7.75586 2.5033 8.07129 3.53004 8.26912 4.70075L9.99984 4.40262C9.73953 3.23902 9.07928 2.21761 8.14599 1.53473C7.70391 1.20769 7.21227 0.961817 6.69197 0.807584V0.810493ZM7.68392 4.79964C7.49715 3.70019 7.20524 2.74617 6.80127 2.01029C6.4388 1.35295 5.98779 0.873027 5.44271 0.624342C5.27134 0.621965 5.09998 0.629734 4.92944 0.647611L5.63086 5.15594L7.68392 4.79964ZM9.15731 9.45341L9.6678 10.1093H11.0693L10.6293 9.45341H9.15731ZM7.44458 12.1075H14.8945L13.8362 10.9964H8.40609L7.43766 12.1075H7.44458Z" fill="#2ED06A"/>
</g>
<defs>
<clipPath id="clip0_2498_544">
<rect width="17" height="13" fill="white"/>
</clipPath>
</defs>
</svg>
